<svg preserveAspectRatio="none" width="100%" height="100%" overflow="visible" style="display: block;" viewBox="0 0 39 42" fill="none" xmlns="http://www.w3.org/2000/svg">
<g id="Layer_1-2">
<path id="Vector" d="M1.2113 14.8914L1.1141 15.3116L1.01974 15.2897C0.923489 15.2677 0.83581 15.2706 0.756708 15.2992C0.6757 15.3279 0.624236 15.3966 0.599458 15.5036C0.586115 15.5609 0.587068 15.6106 0.599458 15.6507C0.614706 15.6917 0.63472 15.7261 0.662358 15.7567C0.692855 15.7872 0.72907 15.8111 0.772909 15.8293C0.815796 15.8484 0.861542 15.8637 0.911099 15.8742C0.968281 15.8875 1.01689 15.8961 1.05596 15.9019C1.09408 15.9057 1.13125 15.9028 1.16556 15.8933C1.19796 15.8847 1.23037 15.8656 1.25991 15.8398C1.2885 15.814 1.31995 15.7748 1.35426 15.7261L1.55535 15.4348C1.61158 15.3498 1.67162 15.2839 1.73166 15.2371C1.79361 15.1903 1.85937 15.1588 1.92894 15.1397C2.00137 15.1263 2.08142 15.1216 2.1672 15.1302C2.25202 15.1388 2.34923 15.155 2.45501 15.1798C2.57795 15.2085 2.69041 15.2467 2.78953 15.2963C2.88959 15.346 2.9706 15.4062 3.03064 15.4778C3.09354 15.5533 3.13738 15.6421 3.1593 15.7452C3.18122 15.8484 3.17741 15.9678 3.14691 16.1005C3.12213 16.2017 3.08401 16.2925 3.02778 16.3727C2.97156 16.452 2.9058 16.5169 2.82765 16.5647C2.75141 16.6124 2.66563 16.6459 2.57414 16.663C2.48265 16.6802 2.38639 16.6783 2.28823 16.6564L2.13384 16.6191L2.2301 16.2008L2.36161 16.2314C2.43786 16.2495 2.51219 16.2419 2.58367 16.2123C2.6561 16.1807 2.70375 16.112 2.72853 16.005C2.74473 15.9334 2.74759 15.8761 2.73711 15.8321C2.72472 15.7872 2.7028 15.75 2.6704 15.7185C2.63799 15.6879 2.59415 15.665 2.54174 15.6488C2.48932 15.6325 2.43119 15.6163 2.36543 15.601C2.28918 15.5829 2.22533 15.5724 2.17482 15.5666C2.12431 15.5599 2.08142 15.5628 2.04902 15.5704C2.01376 15.5829 1.98326 15.6029 1.95753 15.6297C1.9318 15.6574 1.9013 15.6946 1.86699 15.7404L1.67543 16.0126C1.55916 16.176 1.43431 16.2753 1.29898 16.3087C1.16175 16.3412 1.00354 16.3374 0.819608 16.2953C0.710009 16.2705 0.609941 16.2304 0.51845 16.1769C0.427912 16.1244 0.352622 16.0604 0.296393 15.983C0.237305 15.9085 0.198231 15.8226 0.176311 15.7233C0.154391 15.6239 0.158203 15.5131 0.185841 15.3899C0.21062 15.2868 0.251601 15.1951 0.308783 15.1177C0.367871 15.0413 0.434583 14.9774 0.512732 14.9286C0.672841 14.8341 0.837716 14.8054 1.00736 14.8446L1.21321 14.8914H1.2113Z" fill="var(--fill-0, #231F20)"/>
<path id="Vector_2" d="M3.4252 14.8962L0.841528 13.2353L0.964469 12.8972L4.00846 13.3012L3.86074 13.7052L3.21267 13.6021L3.01158 14.1522L3.57292 14.4922L3.4252 14.8962ZM2.80573 13.5371L1.71355 13.3614L1.71069 13.37L2.65705 13.9421L2.80478 13.5371H2.80573Z" fill="var(--fill-0, #231F20)"/>
<path id="Vector_3" d="M4.24576 12.753L1.60872 11.328L1.80504 10.9642L3.46237 11.2316L3.46618 11.2249L2.32921 9.98808L2.52744 9.62038L5.16448 11.0463L4.96053 11.4235L3.35658 10.5573L3.35372 10.564L4.28483 11.5525L4.18191 11.7406L2.84861 11.5L2.8448 11.5066L4.44876 12.3729L4.24481 12.752L4.24576 12.753Z" fill="var(--fill-0, #231F20)"/>
<path id="Vector_4" d="M4.06182 7.44283L5.92214 8.83723C6.00029 8.89644 6.06224 8.9633 6.10703 9.04161C6.15373 9.11993 6.18232 9.20397 6.19471 9.29375C6.20805 9.38448 6.20424 9.47521 6.18232 9.56403C6.16136 9.65286 6.12228 9.73595 6.06605 9.81235C6.00887 9.88876 5.94025 9.94988 5.8621 9.99381C5.783 10.0387 5.69913 10.0683 5.6086 10.0807C5.51806 10.0941 5.42943 10.0903 5.33984 10.0702C5.25216 10.0492 5.1683 10.011 5.09015 9.95179L3.22983 8.55739L3.48619 8.21262L5.31316 9.58123C5.39798 9.64617 5.47613 9.67196 5.5476 9.66241C5.61717 9.65286 5.67626 9.61752 5.72201 9.55544C5.7668 9.49527 5.78491 9.42937 5.77442 9.3587C5.76489 9.28707 5.71724 9.22021 5.63242 9.15527L3.80546 7.78666L4.06278 7.44188L4.06182 7.44283Z" fill="var(--fill-0, #231F20)"/>
<path id="Vector_5" d="M6.98478 8.63189L4.8233 6.55176L5.70867 5.6263L6.00029 5.90804L5.41132 6.52119L6.04699 7.13244L6.55972 6.59664L6.85135 6.87648L6.33862 7.41227L6.97239 8.02351L7.56041 7.40845L7.8711 7.70643L6.98478 8.63189Z" fill="var(--fill-0, #231F20)"/>
<path id="Vector_6" d="M8.36763 7.25468L6.4568 4.94151L6.78654 4.66741L8.42385 6.65013L9.07859 6.10669L9.35211 6.43715L8.36763 7.25564V7.25468Z" fill="var(--fill-0, #231F20)"/>
<path id="Vector_7" d="M10.7731 5.45629L9.9306 2.49845L10.2461 2.32654L12.2636 4.64544L11.8872 4.85174L11.4697 4.34555L10.9551 4.62443L11.1524 5.25191L10.774 5.4582L10.7731 5.45629ZM11.2039 4.02656L10.5015 3.17178L10.4948 3.1756L10.8274 4.23285L11.2039 4.02656Z" fill="var(--fill-0, #231F20)"/>
<path id="Vector_8" d="M12.8202 4.39999L11.7375 1.59974L12.1378 1.44502L12.6305 2.72289L12.6391 2.72003L12.7297 1.21389L13.1309 1.05917L13.0184 2.39244L14.3145 3.82027L13.8914 3.98454L12.9555 2.91773L12.8955 3.40672L13.2205 4.24527L12.8202 4.39999Z" fill="var(--fill-0, #231F20)"/>
<path id="Vector_9" d="M14.245 1.45266C14.2164 1.33423 14.2107 1.22631 14.2297 1.12602C14.2478 1.02574 14.2841 0.937875 14.3365 0.86147C14.3889 0.786975 14.4518 0.72585 14.5271 0.675232C14.6033 0.624613 14.6834 0.588321 14.7682 0.568264C14.8521 0.546298 14.9397 0.540568 15.0303 0.550118C15.1208 0.559669 15.2066 0.584501 15.2895 0.625568C15.3705 0.669502 15.442 0.731581 15.5049 0.810851C15.5678 0.890122 15.6145 0.989449 15.6431 1.10692L16.0224 2.64553C16.0529 2.76778 16.0576 2.87761 16.0386 2.97503C16.0195 3.0734 15.9843 3.15936 15.9328 3.23194C15.8794 3.30835 15.8146 3.37329 15.7393 3.42391C15.664 3.47358 15.583 3.51082 15.4992 3.53088C15.4143 3.55189 15.3267 3.55667 15.2361 3.54712C15.1456 3.53852 15.0608 3.51178 14.9798 3.46785C14.8978 3.42773 14.8254 3.36947 14.7634 3.29211C14.7005 3.2138 14.6538 3.11352 14.6233 2.99127L14.244 1.45266H14.245ZM15.0427 2.88812C15.0674 2.9884 15.1122 3.05717 15.1809 3.08964C15.2476 3.12402 15.321 3.13071 15.3962 3.11256C15.4725 3.09346 15.5335 3.05335 15.5773 2.99222C15.6212 2.9311 15.6307 2.84992 15.6059 2.74773L15.2266 1.20911C15.2018 1.10788 15.1551 1.04007 15.0865 1.00568C15.0198 0.973213 14.9483 0.964617 14.8711 0.983718C14.7939 1.00282 14.7339 1.04293 14.69 1.10406C14.6462 1.16518 14.6367 1.24636 14.6615 1.34855L15.0427 2.88717V2.88812Z" fill="var(--fill-0, #231F20)"/>
<path id="Vector_10" d="M16.9564 3.19756L16.6209 0.21489L17.3061 0.138485C17.8074 0.0811806 18.0924 0.344779 18.1581 0.92928C18.1772 1.10501 18.1667 1.25782 18.1267 1.38676C18.0857 1.51569 18.0018 1.62552 17.8732 1.71625L18.4869 3.02756L18.0352 3.07818L17.4958 1.84805L17.2394 1.87671L17.3833 3.15076L16.9573 3.19852L16.9564 3.19756ZM17.0917 0.568265L17.1956 1.49945L17.4376 1.47176C17.5129 1.46221 17.572 1.44597 17.6139 1.41923C17.6559 1.39249 17.6883 1.35906 17.7083 1.31799C17.7264 1.27501 17.7359 1.22631 17.7388 1.16805C17.7397 1.10883 17.7378 1.04293 17.7283 0.967482C17.7197 0.892032 17.7093 0.826133 17.694 0.769784C17.6788 0.713435 17.6568 0.665681 17.6273 0.625569C17.5653 0.553939 17.4615 0.527197 17.3137 0.543433L17.0917 0.568265Z" fill="var(--fill-0, #231F20)"/>
<path id="Vector_11" d="M19.1426 3.00177L19.1922 0L20.4702 0.0210115L20.4645 0.42596L19.6134 0.412589L19.6001 1.29412L20.3396 1.30653L20.3339 1.71148L19.5924 1.69906L19.5791 2.58059L20.4283 2.59396L20.4216 3.02374L19.1426 3.00273V3.00177Z" fill="var(--fill-0, #231F20)"/>
<path id="Vector_12" d="M21.1202 3.07054L21.5176 0.0945516L22.1475 0.178597C22.3915 0.21107 22.5678 0.303711 22.6774 0.452701C22.7861 0.603602 22.8242 0.801301 22.7908 1.04675L22.605 2.43828C22.5678 2.71716 22.4735 2.91295 22.321 3.02756C22.1675 3.14312 21.9645 3.18228 21.7129 3.1479L21.1202 3.06958V3.07054ZM21.8893 0.552028L21.6005 2.72671L21.7968 2.7525C21.9159 2.76778 22.0046 2.74964 22.0627 2.69615C22.1218 2.64267 22.159 2.55194 22.1761 2.42396L22.3667 0.990404C22.3829 0.871976 22.3705 0.779334 22.3324 0.708659C22.2943 0.637029 22.2123 0.595006 22.0856 0.57686L21.8893 0.551073V0.552028Z" fill="var(--fill-0, #231F20)"/>
<path id="Vector_13" d="M23.2597 3.4115L24.0145 0.50714L25.2525 0.829953L25.1515 1.22153L24.3281 1.0076L24.106 1.86047L24.8227 2.04862L24.7217 2.44019L24.005 2.25396L23.7829 3.10683L24.6044 3.32077L24.4958 3.73813L23.2588 3.41436L23.2597 3.4115Z" fill="var(--fill-0, #231F20)"/>
<path id="Vector_14" d="M26.1017 4.31021L28.0039 1.89581L28.326 2.05244L27.6284 5.04753L27.2424 4.86129L27.4083 4.22617L26.8812 3.97117L26.4876 4.49836L26.1017 4.31212V4.31021ZM27.5112 3.826L27.7933 2.75346L27.7847 2.74964L27.1243 3.6388L27.5102 3.82504L27.5112 3.826Z" fill="var(--fill-0, #231F20)"/>
<path id="Vector_15" d="M28.1888 5.37607L29.829 2.86233L30.3617 3.21093C30.5676 3.3456 30.6877 3.50509 30.721 3.68847C30.7534 3.87088 30.7029 4.06572 30.5685 4.27297L29.8013 5.4477C29.6479 5.6836 29.4763 5.82017 29.2905 5.85647C29.1047 5.89276 28.9026 5.84119 28.6901 5.70175L28.1888 5.37511V5.37607ZM29.9672 3.43633L28.7701 5.27197L28.936 5.38084C29.037 5.4477 29.1247 5.46871 29.2 5.44674C29.2753 5.42382 29.3477 5.35792 29.4192 5.24904L30.2083 4.03802C30.2731 3.93965 30.3026 3.84987 30.2988 3.7706C30.2931 3.68942 30.2388 3.61588 30.133 3.54521L29.9672 3.43633Z" fill="var(--fill-0, #231F20)"/>
<path id="Vector_16" d="M29.9957 6.62625L31.9304 4.33409L32.9073 5.16213L32.6471 5.47062L31.9981 4.9205L31.4291 5.59478L31.9952 6.07422L31.735 6.38271L31.1689 5.90327L30.6 6.57563L31.249 7.12575L30.9726 7.45429L29.9957 6.62625Z" fill="var(--fill-0, #231F20)"/>
<path id="Vector_17" d="M31.4596 7.92514L33.6592 5.88703L33.9499 6.20316L32.9473 7.13435L32.953 7.14008L34.3816 6.67018L34.6732 6.98631L33.3962 7.37216L32.548 9.1056L32.2401 8.77228L32.8844 7.50778L32.4088 7.63289L31.7512 8.24222L31.4596 7.9261V7.92514Z" fill="var(--fill-0, #231F20)"/>
<path id="Vector_18" d="M36.1476 8.95566L34.2549 10.3052C34.1758 10.3615 34.0919 10.3997 34.0042 10.4188C33.9165 10.4379 33.8279 10.4408 33.7374 10.4255C33.6468 10.4102 33.5629 10.3787 33.4858 10.331C33.4067 10.2832 33.339 10.2211 33.2847 10.1428C33.2303 10.0645 33.1932 9.98044 33.1751 9.89258C33.156 9.80376 33.1541 9.71398 33.1693 9.62325C33.1846 9.53443 33.216 9.44847 33.2627 9.37207C33.3075 9.29375 33.3723 9.2269 33.4514 9.16864L35.3442 7.82104L35.5939 8.17155L33.7355 9.49623C33.6478 9.5583 33.5982 9.6242 33.5858 9.69488C33.5753 9.7646 33.5896 9.8305 33.6354 9.89258C33.6792 9.95466 33.7355 9.99095 33.8069 10.0034C33.8765 10.0158 33.9546 9.99095 34.0423 9.92791L35.9007 8.60419L36.1485 8.9547L36.1476 8.95566Z" fill="var(--fill-0, #231F20)"/>
<path id="Vector_19" d="M34.1271 11.372L36.7775 9.96994L36.9691 10.3348L35.6749 11.754L35.6787 11.7607L37.276 10.9164L37.4761 11.2965L34.8257 12.6986L34.638 12.3404L35.9246 10.9164L35.9208 10.9078L34.3273 11.7511L34.1271 11.371V11.372Z" fill="var(--fill-0, #231F20)"/>
<path id="Vector_20" d="M35.1364 13.413L37.9402 12.3547L38.0908 12.7568L35.6892 13.6641L35.9875 14.4607L35.5862 14.6135L35.1355 13.4139L35.1364 13.413Z" fill="var(--fill-0, #231F20)"/>
<path id="Vector_21" d="M35.7835 15.2792L38.6931 14.5581L39 15.8035L38.6083 15.8999L38.4044 15.0738L37.5495 15.2849L37.7277 16.006L37.336 16.1034L37.1578 15.3823L36.3048 15.5934L36.5088 16.4195L36.0923 16.5236L35.7845 15.2782L35.7835 15.2792Z" fill="var(--fill-0, #231F20)"/>
<path id="Vector_22" d="M37.8983 27.1076L37.9955 26.6874L38.0899 26.7094C38.1861 26.7314 38.2738 26.7285 38.3529 26.6998C38.4339 26.6712 38.4854 26.6024 38.5101 26.4955C38.5235 26.4381 38.5225 26.3885 38.5101 26.3484C38.4949 26.3073 38.4749 26.2729 38.4472 26.2424C38.4167 26.2118 38.3805 26.1879 38.3367 26.1698C38.2938 26.1507 38.2481 26.1354 38.1985 26.1249C38.1413 26.1115 38.0927 26.1029 38.0536 26.0972C38.0155 26.0934 37.9783 26.0962 37.944 26.1058C37.9116 26.1144 37.8792 26.1335 37.8497 26.1593C37.8211 26.1851 37.7896 26.2242 37.7553 26.2729L37.5542 26.5642C37.498 26.6492 37.438 26.7151 37.3779 26.7619C37.316 26.8087 37.2502 26.8402 37.1807 26.8593C37.1082 26.8727 37.0282 26.8775 36.9424 26.8689C36.8576 26.8603 36.7604 26.844 36.6546 26.8192C36.5316 26.7906 36.4192 26.7524 36.3201 26.7027C36.22 26.653 36.139 26.5929 36.079 26.5212C36.0161 26.4458 35.9722 26.357 35.9503 26.2538C35.9284 26.1507 35.9322 26.0313 35.9627 25.8985C35.9875 25.7973 36.0256 25.7066 36.0818 25.6263C36.138 25.5461 36.2038 25.4821 36.282 25.4344C36.3582 25.3866 36.444 25.3532 36.5355 25.336C36.6269 25.3179 36.7232 25.3207 36.8214 25.3427L36.9758 25.3799L36.8795 25.7983L36.748 25.7677C36.6717 25.7495 36.5974 25.7572 36.5259 25.7868C36.4535 25.8183 36.4058 25.8871 36.3811 25.994C36.3649 26.0657 36.362 26.123 36.3725 26.1669C36.3849 26.2118 36.4068 26.249 36.4392 26.2806C36.4716 26.3111 36.5154 26.334 36.5679 26.3503C36.6203 26.3665 36.6784 26.3828 36.7442 26.398C36.8204 26.4162 36.8843 26.4267 36.9348 26.4324C36.9853 26.4391 37.0282 26.4362 37.0606 26.4286C37.0958 26.4162 37.1263 26.3961 37.1521 26.3694C37.1778 26.3417 37.2083 26.3044 37.2426 26.2586L37.4342 25.9864C37.5504 25.8231 37.6753 25.7238 37.8106 25.6903C37.9478 25.6579 38.1061 25.6617 38.29 25.7037C38.3996 25.7285 38.4997 25.7686 38.5911 25.8221C38.6817 25.8747 38.757 25.9386 38.8132 26.016C38.8723 26.0905 38.9114 26.1765 38.9333 26.2758C38.9552 26.3751 38.9514 26.4859 38.9238 26.6091C38.899 26.7122 38.858 26.8039 38.8008 26.8813C38.7417 26.9577 38.675 27.0217 38.5969 27.0704C38.4368 27.165 38.2719 27.1936 38.1022 27.1544L37.8964 27.1076H37.8983Z" fill="var(--fill-0, #231F20)"/>
<path id="Vector_23" d="M35.6844 27.1038L38.2681 28.7647L38.1451 29.1028L35.1011 28.6988L35.2489 28.2948L35.8969 28.3979L36.098 27.8478L35.5367 27.5078L35.6844 27.1038ZM36.3039 28.4629L37.396 28.6386L37.3989 28.63L36.4525 28.0579L36.3048 28.4629H36.3039Z" fill="var(--fill-0, #231F20)"/>
<path id="Vector_24" d="M34.8638 29.247L37.5009 30.672L37.3046 31.0358L35.6472 30.7684L35.6434 30.7751L36.7804 32.0119L36.5822 32.3796L33.9451 30.9537L34.1491 30.5765L35.753 31.4427L35.7559 31.436L34.8248 30.4475L34.9277 30.2594L36.261 30.5L36.2648 30.4934L34.6608 29.6271L34.8648 29.248L34.8638 29.247Z" fill="var(--fill-0, #231F20)"/>
<path id="Vector_25" d="M35.0478 34.5572L33.1875 33.1628C33.1093 33.1036 33.0474 33.0367 33.0026 32.9584C32.9559 32.8801 32.9273 32.796 32.9149 32.7062C32.9015 32.6155 32.9054 32.5248 32.9273 32.436C32.9482 32.3471 32.9873 32.2641 33.0435 32.1876C33.1007 32.1112 33.1693 32.0501 33.2475 32.0062C33.3266 31.9613 33.4105 31.9317 33.501 31.9193C33.5915 31.9059 33.6802 31.9097 33.7698 31.9298C33.8574 31.9508 33.9413 31.989 34.0195 32.0482L35.8798 33.4426L35.6234 33.7874L33.7964 32.4188C33.7116 32.3538 33.6335 32.328 33.562 32.3376C33.4924 32.3471 33.4333 32.3825 33.3876 32.4446C33.3428 32.5047 33.3247 32.5706 33.3352 32.6413C33.3447 32.7129 33.3924 32.7798 33.4772 32.8447L35.3041 34.2133L35.0468 34.5581L35.0478 34.5572Z" fill="var(--fill-0, #231F20)"/>
<path id="Vector_26" d="M32.1248 33.3681L34.2863 35.4482L33.4009 36.3737L33.1093 36.092L33.6983 35.4788L33.0626 34.8676L32.5499 35.4034L32.2582 35.1235L32.771 34.5877L32.1372 33.9765L31.5492 34.5916L31.2385 34.2936L32.1248 33.3681Z" fill="var(--fill-0, #231F20)"/>
<path id="Vector_27" d="M30.742 34.7444L32.6528 37.0575L32.3231 37.3316L30.6857 35.3489L30.031 35.8923L29.7575 35.5619L30.742 34.7434V34.7444Z" fill="var(--fill-0, #231F20)"/>
<path id="Vector_28" d="M28.3365 36.5427L29.179 39.5006L28.8635 39.6725L26.846 37.3536L27.2224 37.1473L27.6399 37.6535L28.1545 37.3746L27.9572 36.7471L28.3356 36.5408L28.3365 36.5427ZM27.9057 37.9734L28.6081 38.8282L28.6148 38.8244L28.2822 37.7671L27.9057 37.9734Z" fill="var(--fill-0, #231F20)"/>
<path id="Vector_29" d="M26.2885 37.6L27.3711 40.4003L26.9708 40.555L26.4781 39.2771L26.4695 39.28L26.379 40.7861L25.9778 40.9408L26.0902 39.6076L24.7941 38.1797L25.2172 38.0155L26.1531 39.0823L26.2132 38.5933L25.8882 37.7547L26.2885 37.6Z" fill="var(--fill-0, #231F20)"/>
<path id="Vector_30" d="M24.8646 40.5473C24.8932 40.6658 24.8989 40.7737 24.8799 40.874C24.8618 40.9743 24.8255 41.0621 24.7731 41.1385C24.7207 41.213 24.6578 41.2741 24.5825 41.3248C24.5063 41.3754 24.4262 41.4117 24.3414 41.4317C24.2575 41.4537 24.1699 41.4594 24.0793 41.4499C23.9888 41.4403 23.903 41.4155 23.8201 41.3744C23.7391 41.3305 23.6676 41.2684 23.6047 41.1891C23.5418 41.1099 23.4951 41.0105 23.4665 40.8931L23.0872 39.3545C23.0567 39.2322 23.052 39.1224 23.071 39.025C23.0901 38.9266 23.1253 38.8406 23.1768 38.7681C23.2302 38.6916 23.295 38.6267 23.3703 38.5761C23.4456 38.5264 23.5266 38.4892 23.6104 38.4691C23.6953 38.4481 23.7829 38.4433 23.8735 38.4529C23.964 38.4615 24.0488 38.4882 24.1298 38.5322C24.2118 38.5723 24.2842 38.6305 24.3462 38.7079C24.4091 38.7862 24.4558 38.8865 24.4863 39.0087L24.8656 40.5473H24.8646ZM24.0669 39.1119C24.0422 39.0116 23.9974 38.9428 23.9287 38.9104C23.862 38.876 23.7886 38.8693 23.7134 38.8874C23.6371 38.9065 23.5761 38.9466 23.5323 39.0078C23.4884 39.0689 23.4789 39.1501 23.5037 39.2523L23.883 40.7909C23.9078 40.8921 23.9545 40.9599 24.0231 40.9943C24.0898 41.0268 24.1613 41.0354 24.2385 41.0163C24.3157 40.9972 24.3757 40.9571 24.4196 40.8959C24.4634 40.8348 24.4729 40.7536 24.4481 40.6514L24.0669 39.1128V39.1119Z" fill="var(--fill-0, #231F20)"/>
<path id="Vector_31" d="M22.1532 38.8024L22.4887 41.7851L21.8035 41.8615C21.3022 41.9188 21.0172 41.6552 20.9515 41.0707C20.9324 40.895 20.9429 40.7422 20.9829 40.6132C21.0239 40.4843 21.1078 40.3745 21.2364 40.2837L20.6227 38.9724L21.0744 38.9218L21.6138 40.1519L21.8702 40.1233L21.7263 38.8492L22.1523 38.8015L22.1532 38.8024ZM22.0179 41.4317L21.914 40.5005L21.672 40.5282C21.5967 40.5378 21.5376 40.554 21.4957 40.5808C21.4528 40.6066 21.4213 40.6409 21.4013 40.682C21.3832 40.725 21.3737 40.7737 21.3708 40.832C21.3699 40.8912 21.3718 40.9571 21.3813 41.0325C21.3899 41.108 21.4003 41.1739 21.4156 41.2302C21.4308 41.2866 21.4528 41.3343 21.4823 41.3744C21.5443 41.4461 21.6481 41.4728 21.7959 41.4566L22.0179 41.4317Z" fill="var(--fill-0, #231F20)"/>
<path id="Vector_32" d="M19.967 38.9973L19.9174 41.999L18.6394 41.978L18.6451 41.5731L19.4962 41.5865L19.5095 40.7049L18.77 40.6925L18.7757 40.2876L19.5172 40.3L19.5305 39.4185L18.6813 39.4051L18.688 38.9753L19.967 38.9963V38.9973Z" fill="var(--fill-0, #231F20)"/>
<path id="Vector_33" d="M17.9894 38.9285L17.592 41.9045L16.9621 41.8204C16.7181 41.788 16.5418 41.6953 16.4322 41.5463C16.3235 41.3954 16.2854 41.1977 16.3188 40.9523L16.5046 39.5608C16.5418 39.2819 16.6361 39.0861 16.7886 38.9715C16.9421 38.8559 17.1451 38.8168 17.3967 38.8511L17.9894 38.9295V38.9285ZM17.2203 41.448L17.5091 39.2733L17.3128 39.2475C17.1937 39.2322 17.105 39.2504 17.0469 39.3038C16.9878 39.3573 16.9506 39.4481 16.9335 39.576L16.7429 41.0096C16.7267 41.128 16.7391 41.2207 16.7772 41.2913C16.8153 41.363 16.8973 41.405 17.024 41.4231L17.2203 41.4489V41.448Z" fill="var(--fill-0, #231F20)"/>
<path id="Vector_34" d="M15.8489 38.5885L15.0941 41.4929L13.8561 41.17L13.9572 40.7785L14.7806 40.9924L15.0026 40.1395L14.286 39.9514L14.387 39.5598L15.1037 39.746L15.3257 38.8932L14.5042 38.6792L14.6128 38.2619L15.8499 38.5856L15.8489 38.5885Z" fill="var(--fill-0, #231F20)"/>
<path id="Vector_35" d="M13.0079 37.6898L11.1057 40.1042L10.7836 39.9476L11.4812 36.9525L11.8672 37.1387L11.7013 37.7738L12.2284 38.0288L12.622 37.5016L13.0079 37.6879V37.6898ZM11.5984 38.174L11.3163 39.2465L11.3249 39.2504L11.9853 38.3612L11.5994 38.175L11.5984 38.174Z" fill="var(--fill-0, #231F20)"/>
<path id="Vector_36" d="M10.9208 36.6239L9.28063 39.1377L8.74789 38.7891C8.54203 38.6544 8.42195 38.4949 8.38859 38.3115C8.35619 38.1291 8.4067 37.9343 8.54108 37.727L9.30827 36.5523C9.46171 36.3164 9.63325 36.1798 9.8191 36.1435C10.0049 36.1072 10.207 36.1588 10.4195 36.2983L10.9208 36.6249V36.6239ZM9.14244 38.5637L10.3395 36.728L10.1736 36.6192C10.0726 36.5523 9.98492 36.5313 9.90963 36.5533C9.83434 36.5762 9.76191 36.6421 9.69044 36.751L8.90133 37.962C8.83652 38.0604 8.80697 38.1501 8.81079 38.2294C8.8165 38.3106 8.87083 38.3841 8.97661 38.4548L9.14244 38.5637Z" fill="var(--fill-0, #231F20)"/>
<path id="Vector_37" d="M9.11385 35.3737L7.17919 37.6659L6.20234 36.8379L6.46251 36.5294L7.11153 37.0795L7.68049 36.4052L7.11439 35.9258L7.37457 35.6173L7.94067 36.0967L8.50963 35.4244L7.86061 34.8742L8.13699 34.5457L9.11385 35.3737Z" fill="var(--fill-0, #231F20)"/>
<path id="Vector_38" d="M7.64904 34.0749L5.44944 36.113L5.15877 35.7968L6.16136 34.8657L6.15564 34.8599L4.72704 35.3298L4.43541 35.0137L5.71248 34.6278L6.56068 32.8944L6.86851 33.2277L6.22426 34.4922L6.69982 34.3671L7.35741 33.7578L7.64904 34.0739V34.0749Z" fill="var(--fill-0, #231F20)"/>
<path id="Vector_39" d="M2.96203 33.0443L4.85475 31.6948C4.93385 31.6385 5.01772 31.6003 5.1054 31.5812C5.19307 31.5621 5.28171 31.5592 5.37224 31.5745C5.46278 31.5898 5.54665 31.6213 5.62385 31.669C5.70295 31.7168 5.77061 31.7789 5.82494 31.8572C5.87926 31.9355 5.91643 32.0196 5.93453 32.1074C5.95359 32.1962 5.9555 32.286 5.94025 32.3768C5.925 32.4656 5.89355 32.5515 5.84686 32.6279C5.80206 32.7062 5.73726 32.7731 5.65815 32.8314L3.76543 34.179L3.51574 33.8285L5.37415 32.5038C5.46183 32.4417 5.51139 32.3758 5.52378 32.3051C5.53426 32.2354 5.51996 32.1695 5.47422 32.1074C5.43038 32.0453 5.37415 32.009 5.30267 31.9966C5.2331 31.9842 5.15495 32.0091 5.06727 32.0721L3.20886 33.3958L2.96107 33.0453L2.96203 33.0443Z" fill="var(--fill-0, #231F20)"/>
<path id="Vector_40" d="M4.98245 30.628L2.33207 32.0301L2.14051 31.6652L3.43473 30.246L3.43092 30.2393L1.83363 31.0836L1.6335 30.7035L4.28388 29.3014L4.47163 29.6596L3.18503 31.0836L3.18885 31.0922L4.78232 30.2489L4.98245 30.629V30.628Z" fill="var(--fill-0, #231F20)"/>
<path id="Vector_41" d="M3.97319 28.5861L1.16937 29.6443L1.01879 29.2422L3.42043 28.3349L3.12213 27.5384L3.52336 27.3856L3.97415 28.5851L3.97319 28.5861Z" fill="var(--fill-0, #231F20)"/>
<path id="Vector_42" d="M3.32608 26.7208L0.416475 27.4419L0.109599 26.1965L0.501295 26.1001L0.705244 26.9262L1.56011 26.7151L1.3819 25.994L1.77359 25.8966L1.95181 26.6177L2.80478 26.4066L2.60083 25.5805L3.0173 25.4764L3.32513 26.7218L3.32608 26.7208Z" fill="var(--fill-0, #231F20)"/>
<path id="Vector_43" d="M19.8774 24.06C20.0842 23.6962 20.4121 23.422 20.86 23.2368C21.3089 23.0515 21.9102 22.9598 22.6641 22.9598C23.8172 22.9598 24.6616 23.1737 25.1944 23.6006C25.729 24.0285 25.9959 24.6999 25.9959 25.612V29.5708H22.0246V26.3828H20.9782V27.2805C20.9782 27.865 20.8714 28.3473 20.6579 28.7246C20.4445 29.1037 20.1099 29.3807 19.6553 29.5593C19.1988 29.7379 18.5946 29.8267 17.8408 29.8267C16.7028 29.8267 15.8699 29.6128 15.3419 29.1859C14.8158 28.758 14.5519 28.0942 14.5519 27.1955V23.2788H18.5241V26.3828H19.5696V25.4191C19.5696 24.8766 19.6735 24.4239 19.8793 24.06H19.8774Z" fill="var(--fill-0, #231F20)"/>
<path id="Vector_44" d="M19.6534 17.8215V18.9351C19.6534 19.8205 19.4886 20.4995 19.1617 20.9675C18.8357 21.4393 18.3354 21.6752 17.6664 21.6752C17.0383 21.6752 16.5723 21.4603 16.2578 21.0334C15.9442 20.6075 15.787 19.9781 15.787 19.15V18.8482H15.2457L14.6548 21.4594H11.7719V13.7367C11.7719 12.4951 12.053 11.5601 12.6143 10.9307C13.1757 10.3061 14.0143 9.99095 15.1256 9.99095H19.3752V13.9717H15.2495V17.4806H16.3188V15.0184H17.1527C17.979 15.0184 18.5984 15.2457 19.0197 15.7013C19.4409 16.1607 19.6515 16.8646 19.6515 17.8206L19.6534 17.8215Z" fill="var(--fill-0, #231F20)"/>
<path id="Vector_45" d="M27.3349 14.3957H21.1964V20.5473H27.3349V14.3957Z" fill="var(--fill-0, #231F20)"/>
<path id="Vector_46" d="M1.58394 20.2656H0V21.8529H1.58394V20.2656Z" fill="var(--fill-0, #231F20)"/>
<path id="Vector_47" d="M38.6159 20.2656H37.032V21.8529H38.6159V20.2656Z" fill="var(--fill-0, #231F20)"/>
</g>
</svg>
